<svg width="170" height="67" viewBox="0 0 170 67" fill="none" xmlns="http://www.w3.org/2000/svg">
<g clip-path="url(#clip0_1_94)" filter="url(#filter0_d_1_94)">
<rect width="146" height="43" transform="translate(11.1099 10.8862)" fill="#9DDCFF"/>
<mask id="path-1-outside-1_1_94" maskUnits="userSpaceOnUse" x="13.1099" y="14.8862" width="145" height="34" fill="black">
<rect fill="white" x="13.1099" y="14.8862" width="145" height="34"/>
<path d="M14.3009 30.5822C14.3009 27.2542 14.1622 24.3209 13.8849 21.7822C13.8849 21.1209 14.1622 20.5449 14.7169 20.0542C15.2715 19.5636 16.0075 19.1902 16.9249 18.9342C18.7595 18.4649 20.7755 18.2302 22.9729 18.2302C25.8102 18.2302 28.0395 18.8596 29.6609 20.1182C31.3035 21.3556 32.1249 23.2649 32.1249 25.8462C32.1249 28.4276 31.0795 30.4969 28.9889 32.0542C26.8982 33.6116 24.3489 34.3902 21.3409 34.3902C19.8049 34.3902 18.1942 34.0702 16.5089 33.4302C16.4022 34.4542 16.3489 35.8409 16.3489 37.5902L16.3809 39.1582C16.3809 39.6702 16.3702 40.2036 16.3489 40.7582C16.2422 40.9076 16.1249 41.0142 15.9969 41.0782C15.8689 41.1422 15.7729 41.1849 15.7089 41.2062C15.6662 41.2489 15.5915 41.2809 15.4849 41.3022C15.3782 41.3236 15.3035 41.3342 15.2609 41.3342C15.1329 41.3769 14.9835 41.3982 14.8129 41.3982H14.2689C14.2262 39.7982 14.2049 38.3582 14.2049 37.0782L14.3009 30.5822ZM16.4449 31.1262C18.0022 32.1716 19.8689 32.6942 22.0449 32.6942C24.2209 32.6729 26.0555 32.0009 27.5489 30.6782C29.0422 29.3342 29.7889 27.6916 29.7889 25.7502C29.7889 23.8089 29.0209 22.3582 27.4849 21.3982C25.9489 20.4382 24.1035 19.9582 21.9489 19.9582C19.8155 19.9582 17.9275 20.4489 16.2849 21.4302C16.3915 22.8169 16.4449 26.0489 16.4449 31.1262ZM35.9424 34.3902C35.8997 34.8169 35.8784 35.1049 35.8784 35.2542C35.8784 36.5342 36.2624 37.5262 37.0304 38.2302C37.8197 38.9342 38.7477 39.2862 39.8144 39.2862C40.881 39.2862 41.745 39.1369 42.4064 38.8382C43.089 38.5396 43.5797 38.2196 43.8784 37.8782C44.6464 36.9182 45.3504 36.4382 45.9904 36.4382C46.225 36.4382 46.5024 36.5022 46.8224 36.6302C46.609 37.6756 45.7984 38.6356 44.3904 39.5102C43.0037 40.3636 41.2544 40.7902 39.1424 40.7902C37.649 40.7902 36.3584 40.3209 35.2704 39.3822C34.2037 38.4222 33.6704 37.1209 33.6704 35.4782C33.6704 33.8356 33.9904 32.2462 34.6304 30.7102C35.2917 29.1529 36.2304 27.8302 37.4464 26.7422C38.6837 25.6329 39.9317 25.0782 41.1904 25.0782C42.4704 25.0782 43.4944 25.3449 44.2624 25.8782C45.0517 26.3902 45.4464 27.1476 45.4464 28.1502C45.4464 30.0062 44.6144 31.5422 42.9504 32.7582C41.3077 33.9529 39.5584 34.5502 37.7024 34.5502C37.2117 34.5502 36.625 34.4969 35.9424 34.3902ZM38.3744 33.3342C39.377 33.3342 40.273 33.0142 41.0624 32.3742C41.8517 31.7342 42.4064 31.0622 42.7264 30.3582C43.0677 29.6542 43.2384 29.0142 43.2384 28.4382C43.2384 27.8622 43.0144 27.3609 42.5664 26.9342C42.1184 26.4862 41.5957 26.2622 40.9984 26.2622C39.9317 26.2622 38.9397 26.9982 38.0224 28.4702C37.1264 29.9422 36.4864 31.4676 36.1024 33.0462C37.041 33.2382 37.7984 33.3342 38.3744 33.3342ZM62.5874 39.9902C62.2034 40.3956 61.766 40.5982 61.2754 40.5982C60.358 40.5982 59.6754 40.1076 59.2274 39.1262C58.7794 38.1449 58.5127 36.9502 58.4274 35.5422C58.3634 34.1342 58.3207 32.7262 58.2994 31.3182C58.278 29.9102 58.1607 28.7156 57.9474 27.7342C57.7554 26.7529 57.382 26.2622 56.8274 26.2622C56.0807 26.2622 55.4407 26.9342 54.9074 28.2782C54.3954 29.6222 54.0327 31.1156 53.8194 32.7582C53.222 37.3449 52.646 39.9156 52.0914 40.4702C51.7074 40.6622 51.3767 40.7582 51.0994 40.7582C50.822 40.7582 50.5874 40.7262 50.3954 40.6622C49.9474 38.6996 49.6594 35.3182 49.5314 30.5182C49.4887 28.1289 49.446 26.5822 49.4034 25.8782C49.8514 25.5796 50.2354 25.4302 50.5554 25.4302C50.8754 25.4302 51.1314 25.4622 51.3234 25.5262C51.43 26.4436 51.4834 28.3209 51.4834 31.1582C51.5047 33.9956 51.526 35.6276 51.5474 36.0542C51.654 35.6062 51.782 34.8809 51.9314 33.8782C52.102 32.8756 52.2514 32.0542 52.3794 31.4142C52.5074 30.7529 52.71 29.9849 52.9874 29.1102C53.2647 28.2356 53.574 27.5422 53.9154 27.0302C54.2567 26.4969 54.726 26.0489 55.3234 25.6862C55.9207 25.3022 56.5927 25.1102 57.3394 25.1102C58.342 25.1102 59.0674 25.5689 59.5154 26.4862C59.9847 27.3822 60.2407 28.5022 60.2834 29.8462C60.326 31.1902 60.3474 32.5556 60.3474 33.9422C60.3687 35.3289 60.5394 36.5982 60.8594 37.7502C61.2007 38.9022 61.7767 39.6489 62.5874 39.9902ZM75.4701 16.7262C75.6621 16.3209 76.2274 16.1182 77.1661 16.1182C77.5501 16.1182 77.7208 16.2142 77.6781 16.4062C76.2488 19.3502 74.3821 23.8836 72.0781 30.0062C69.7741 36.1289 67.6728 40.9609 65.7741 44.5022C65.5394 44.8862 64.9741 45.0782 64.0781 45.0782C63.6941 45.0782 63.5021 45.0249 63.5021 44.9182C63.5021 44.8969 63.5234 44.8649 63.5661 44.8222C65.4648 41.2809 67.5661 36.4489 69.8701 30.3262C72.1741 24.2036 74.0408 19.6702 75.4701 16.7262ZM81.3009 30.5822C81.3009 27.2542 81.1622 24.3209 80.8849 21.7822C80.8849 21.1209 81.1622 20.5449 81.7169 20.0542C82.2715 19.5636 83.0075 19.1902 83.9249 18.9342C85.7595 18.4649 87.7755 18.2302 89.9729 18.2302C92.8102 18.2302 95.0395 18.8596 96.6609 20.1182C98.3035 21.3556 99.1249 23.2649 99.1249 25.8462C99.1249 28.4276 98.0795 30.4969 95.9889 32.0542C93.8982 33.6116 91.3489 34.3902 88.3409 34.3902C86.8049 34.3902 85.1942 34.0702 83.5089 33.4302C83.4022 34.4542 83.3489 35.8409 83.3489 37.5902L83.3809 39.1582C83.3809 39.6702 83.3702 40.2036 83.3489 40.7582C83.2422 40.9076 83.1249 41.0142 82.9969 41.0782C82.8689 41.1422 82.7729 41.1849 82.7089 41.2062C82.6662 41.2489 82.5915 41.2809 82.4849 41.3022C82.3782 41.3236 82.3035 41.3342 82.2609 41.3342C82.1329 41.3769 81.9835 41.3982 81.8129 41.3982H81.2689C81.2262 39.7982 81.2049 38.3582 81.2049 37.0782L81.3009 30.5822ZM83.4449 31.1262C85.0022 32.1716 86.8689 32.6942 89.0449 32.6942C91.2209 32.6729 93.0555 32.0009 94.5489 30.6782C96.0422 29.3342 96.7889 27.6916 96.7889 25.7502C96.7889 23.8089 96.0209 22.3582 94.4849 21.3982C92.9489 20.4382 91.1035 19.9582 88.9489 19.9582C86.8155 19.9582 84.9275 20.4489 83.2849 21.4302C83.3915 22.8169 83.4449 26.0489 83.4449 31.1262ZM111.422 31.6702L111.262 35.3502C111.262 37.2062 111.476 38.4542 111.902 39.0942C112.158 39.5209 112.51 39.7342 112.958 39.7342C113.086 39.7342 113.268 39.7022 113.502 39.6382C113.95 39.5102 114.324 39.5742 114.622 39.8302C114.473 40.5769 113.726 40.9502 112.382 40.9502C111.465 40.9502 110.857 40.5662 110.558 39.7982C110.324 39.2222 110.153 38.5076 110.046 37.6542C109.94 36.7796 109.854 36.1822 109.79 35.8622C108.404 38.5076 107.06 40.1182 105.758 40.6942C105.097 40.9929 104.329 41.1422 103.454 41.1422C102.58 41.1422 101.897 40.7262 101.406 39.8942C100.937 39.0409 100.702 37.8036 100.702 36.1822C100.702 34.5609 100.969 32.8649 101.502 31.0942C102.036 29.3022 102.814 27.7982 103.838 26.5822C104.862 25.3449 105.982 24.7262 107.198 24.7262C108.948 24.7262 110.11 25.4516 110.686 26.9022C111.177 28.1396 111.422 29.7289 111.422 31.6702ZM103.582 30.6462C103.284 31.7982 103.06 32.8969 102.91 33.9422C102.761 34.9662 102.686 35.8836 102.686 36.6942C102.686 37.4836 102.846 38.1662 103.166 38.7422C103.508 39.3182 103.945 39.6062 104.478 39.6062C105.63 39.6062 106.74 38.5182 107.806 36.3422C108.873 34.1662 109.406 32.1396 109.406 30.2622C109.406 29.0462 109.086 28.0436 108.446 27.2542C108.02 26.7422 107.454 26.4862 106.75 26.4862C106.068 26.4862 105.438 26.8916 104.862 27.7022C104.308 28.4916 103.881 29.4729 103.582 30.6462ZM117.541 39.8942C117.605 41.6222 117.819 44.0649 118.181 47.2222C117.776 47.6276 117.296 47.8302 116.741 47.8302C116.635 47.8302 116.517 47.8196 116.389 47.7982C116.368 46.9662 116.208 45.0782 115.909 42.1342C115.632 39.1902 115.493 36.9396 115.493 35.3822C115.493 33.8036 115.589 32.4382 115.781 31.2862C115.973 30.1342 116.304 29.0569 116.773 28.0542C117.733 25.9849 119.504 24.9502 122.085 24.9502C123.685 24.9502 124.997 25.8249 126.021 27.5742C127.045 29.3236 127.557 31.3609 127.557 33.6862C127.557 35.5209 126.96 37.1316 125.765 38.5182C124.571 39.9049 122.917 40.5982 120.805 40.5982C119.504 40.5982 118.416 40.3636 117.541 39.8942ZM121.829 26.6782C120.016 26.6782 118.811 27.6169 118.213 29.4942C117.701 31.0942 117.445 33.3022 117.445 36.1182C117.445 37.1422 117.456 37.8996 117.477 38.3902C119.376 38.7956 120.667 38.9982 121.349 38.9982C122.587 38.9982 123.568 38.5076 124.293 37.5262C125.019 36.5236 125.381 35.3076 125.381 33.8782C125.381 31.7662 125.061 30.0382 124.421 28.6942C123.803 27.3502 122.939 26.6782 121.829 26.6782ZM132.38 34.3902C132.337 34.8169 132.316 35.1049 132.316 35.2542C132.316 36.5342 132.7 37.5262 133.468 38.2302C134.257 38.9342 135.185 39.2862 136.252 39.2862C137.319 39.2862 138.183 39.1369 138.844 38.8382C139.527 38.5396 140.017 38.2196 140.316 37.8782C141.084 36.9182 141.788 36.4382 142.428 36.4382C142.663 36.4382 142.94 36.5022 143.26 36.6302C143.047 37.6756 142.236 38.6356 140.828 39.5102C139.441 40.3636 137.692 40.7902 135.58 40.7902C134.087 40.7902 132.796 40.3209 131.708 39.3822C130.641 38.4222 130.108 37.1209 130.108 35.4782C130.108 33.8356 130.428 32.2462 131.068 30.7102C131.729 29.1529 132.668 27.8302 133.884 26.7422C135.121 25.6329 136.369 25.0782 137.628 25.0782C138.908 25.0782 139.932 25.3449 140.7 25.8782C141.489 26.3902 141.884 27.1476 141.884 28.1502C141.884 30.0062 141.052 31.5422 139.388 32.7582C137.745 33.9529 135.996 34.5502 134.14 34.5502C133.649 34.5502 133.063 34.4969 132.38 34.3902ZM134.812 33.3342C135.815 33.3342 136.711 33.0142 137.5 32.3742C138.289 31.7342 138.844 31.0622 139.164 30.3582C139.505 29.6542 139.676 29.0142 139.676 28.4382C139.676 27.8622 139.452 27.3609 139.004 26.9342C138.556 26.4862 138.033 26.2622 137.436 26.2622C136.369 26.2622 135.377 26.9982 134.46 28.4702C133.564 29.9422 132.924 31.4676 132.54 33.0462C133.479 33.2382 134.236 33.3342 134.812 33.3342ZM149.009 37.7502L149.105 39.5742C149.105 40.0436 148.966 40.3742 148.689 40.5662C148.433 40.7369 148.166 40.8222 147.889 40.8222C147.633 40.8222 147.366 40.7796 147.089 40.6942C146.62 38.2196 146.257 35.1369 146.001 31.4462C145.766 27.7556 145.628 25.6649 145.585 25.1742C145.905 24.8756 146.236 24.7262 146.577 24.7262C146.94 24.7262 147.26 24.7689 147.537 24.8542C147.622 25.4729 147.686 26.8382 147.729 28.9502C147.772 31.0622 147.825 32.3849 147.889 32.9182C148.188 31.1262 148.721 29.4516 149.489 27.8942C149.916 27.0196 150.47 26.3262 151.153 25.8142C151.857 25.2809 152.604 25.0142 153.393 25.0142C154.204 25.0142 154.94 25.3769 155.601 26.1022C156.284 26.8062 156.625 27.4462 156.625 28.0222C156.625 28.2356 156.497 28.4062 156.241 28.5342C155.985 28.6409 155.697 28.6942 155.377 28.6942C155.078 28.6942 154.844 28.5769 154.673 28.3422C154.502 28.1076 154.385 27.8516 154.321 27.5742C154.257 27.2756 154.118 27.0089 153.905 26.7742C153.692 26.5396 153.404 26.4222 153.041 26.4222C152.081 26.4222 151.26 27.2862 150.577 29.0142C149.532 31.5956 149.009 34.5076 149.009 37.7502Z"/>
</mask>
<path d="M14.3009 30.5822C14.3009 27.2542 14.1622 24.3209 13.8849 21.7822C13.8849 21.1209 14.1622 20.5449 14.7169 20.0542C15.2715 19.5636 16.0075 19.1902 16.9249 18.9342C18.7595 18.4649 20.7755 18.2302 22.9729 18.2302C25.8102 18.2302 28.0395 18.8596 29.6609 20.1182C31.3035 21.3556 32.1249 23.2649 32.1249 25.8462C32.1249 28.4276 31.0795 30.4969 28.9889 32.0542C26.8982 33.6116 24.3489 34.3902 21.3409 34.3902C19.8049 34.3902 18.1942 34.0702 16.5089 33.4302C16.4022 34.4542 16.3489 35.8409 16.3489 37.5902L16.3809 39.1582C16.3809 39.6702 16.3702 40.2036 16.3489 40.7582C16.2422 40.9076 16.1249 41.0142 15.9969 41.0782C15.8689 41.1422 15.7729 41.1849 15.7089 41.2062C15.6662 41.2489 15.5915 41.2809 15.4849 41.3022C15.3782 41.3236 15.3035 41.3342 15.2609 41.3342C15.1329 41.3769 14.9835 41.3982 14.8129 41.3982H14.2689C14.2262 39.7982 14.2049 38.3582 14.2049 37.0782L14.3009 30.5822ZM16.4449 31.1262C18.0022 32.1716 19.8689 32.6942 22.0449 32.6942C24.2209 32.6729 26.0555 32.0009 27.5489 30.6782C29.0422 29.3342 29.7889 27.6916 29.7889 25.7502C29.7889 23.8089 29.0209 22.3582 27.4849 21.3982C25.9489 20.4382 24.1035 19.9582 21.9489 19.9582C19.8155 19.9582 17.9275 20.4489 16.2849 21.4302C16.3915 22.8169 16.4449 26.0489 16.4449 31.1262ZM35.9424 34.3902C35.8997 34.8169 35.8784 35.1049 35.8784 35.2542C35.8784 36.5342 36.2624 37.5262 37.0304 38.2302C37.8197 38.9342 38.7477 39.2862 39.8144 39.2862C40.881 39.2862 41.745 39.1369 42.4064 38.8382C43.089 38.5396 43.5797 38.2196 43.8784 37.8782C44.6464 36.9182 45.3504 36.4382 45.9904 36.4382C46.225 36.4382 46.5024 36.5022 46.8224 36.6302C46.609 37.6756 45.7984 38.6356 44.3904 39.5102C43.0037 40.3636 41.2544 40.7902 39.1424 40.7902C37.649 40.7902 36.3584 40.3209 35.2704 39.3822C34.2037 38.4222 33.6704 37.1209 33.6704 35.4782C33.6704 33.8356 33.9904 32.2462 34.6304 30.7102C35.2917 29.1529 36.2304 27.8302 37.4464 26.7422C38.6837 25.6329 39.9317 25.0782 41.1904 25.0782C42.4704 25.0782 43.4944 25.3449 44.2624 25.8782C45.0517 26.3902 45.4464 27.1476 45.4464 28.1502C45.4464 30.0062 44.6144 31.5422 42.9504 32.7582C41.3077 33.9529 39.5584 34.5502 37.7024 34.5502C37.2117 34.5502 36.625 34.4969 35.9424 34.3902ZM38.3744 33.3342C39.377 33.3342 40.273 33.0142 41.0624 32.3742C41.8517 31.7342 42.4064 31.0622 42.7264 30.3582C43.0677 29.6542 43.2384 29.0142 43.2384 28.4382C43.2384 27.8622 43.0144 27.3609 42.5664 26.9342C42.1184 26.4862 41.5957 26.2622 40.9984 26.2622C39.9317 26.2622 38.9397 26.9982 38.0224 28.4702C37.1264 29.9422 36.4864 31.4676 36.1024 33.0462C37.041 33.2382 37.7984 33.3342 38.3744 33.3342ZM62.5874 39.9902C62.2034 40.3956 61.766 40.5982 61.2754 40.5982C60.358 40.5982 59.6754 40.1076 59.2274 39.1262C58.7794 38.1449 58.5127 36.9502 58.4274 35.5422C58.3634 34.1342 58.3207 32.7262 58.2994 31.3182C58.278 29.9102 58.1607 28.7156 57.9474 27.7342C57.7554 26.7529 57.382 26.2622 56.8274 26.2622C56.0807 26.2622 55.4407 26.9342 54.9074 28.2782C54.3954 29.6222 54.0327 31.1156 53.8194 32.7582C53.222 37.3449 52.646 39.9156 52.0914 40.4702C51.7074 40.6622 51.3767 40.7582 51.0994 40.7582C50.822 40.7582 50.5874 40.7262 50.3954 40.6622C49.9474 38.6996 49.6594 35.3182 49.5314 30.5182C49.4887 28.1289 49.446 26.5822 49.4034 25.8782C49.8514 25.5796 50.2354 25.4302 50.5554 25.4302C50.8754 25.4302 51.1314 25.4622 51.3234 25.5262C51.43 26.4436 51.4834 28.3209 51.4834 31.1582C51.5047 33.9956 51.526 35.6276 51.5474 36.0542C51.654 35.6062 51.782 34.8809 51.9314 33.8782C52.102 32.8756 52.2514 32.0542 52.3794 31.4142C52.5074 30.7529 52.71 29.9849 52.9874 29.1102C53.2647 28.2356 53.574 27.5422 53.9154 27.0302C54.2567 26.4969 54.726 26.0489 55.3234 25.6862C55.9207 25.3022 56.5927 25.1102 57.3394 25.1102C58.342 25.1102 59.0674 25.5689 59.5154 26.4862C59.9847 27.3822 60.2407 28.5022 60.2834 29.8462C60.326 31.1902 60.3474 32.5556 60.3474 33.9422C60.3687 35.3289 60.5394 36.5982 60.8594 37.7502C61.2007 38.9022 61.7767 39.6489 62.5874 39.9902ZM75.4701 16.7262C75.6621 16.3209 76.2274 16.1182 77.1661 16.1182C77.5501 16.1182 77.7208 16.2142 77.6781 16.4062C76.2488 19.3502 74.3821 23.8836 72.0781 30.0062C69.7741 36.1289 67.6728 40.9609 65.7741 44.5022C65.5394 44.8862 64.9741 45.0782 64.0781 45.0782C63.6941 45.0782 63.5021 45.0249 63.5021 44.9182C63.5021 44.8969 63.5234 44.8649 63.5661 44.8222C65.4648 41.2809 67.5661 36.4489 69.8701 30.3262C72.1741 24.2036 74.0408 19.6702 75.4701 16.7262ZM81.3009 30.5822C81.3009 27.2542 81.1622 24.3209 80.8849 21.7822C80.8849 21.1209 81.1622 20.5449 81.7169 20.0542C82.2715 19.5636 83.0075 19.1902 83.9249 18.9342C85.7595 18.4649 87.7755 18.2302 89.9729 18.2302C92.8102 18.2302 95.0395 18.8596 96.6609 20.1182C98.3035 21.3556 99.1249 23.2649 99.1249 25.8462C99.1249 28.4276 98.0795 30.4969 95.9889 32.0542C93.8982 33.6116 91.3489 34.3902 88.3409 34.3902C86.8049 34.3902 85.1942 34.0702 83.5089 33.4302C83.4022 34.4542 83.3489 35.8409 83.3489 37.5902L83.3809 39.1582C83.3809 39.6702 83.3702 40.2036 83.3489 40.7582C83.2422 40.9076 83.1249 41.0142 82.9969 41.0782C82.8689 41.1422 82.7729 41.1849 82.7089 41.2062C82.6662 41.2489 82.5915 41.2809 82.4849 41.3022C82.3782 41.3236 82.3035 41.3342 82.2609 41.3342C82.1329 41.3769 81.9835 41.3982 81.8129 41.3982H81.2689C81.2262 39.7982 81.2049 38.3582 81.2049 37.0782L81.3009 30.5822ZM83.4449 31.1262C85.0022 32.1716 86.8689 32.6942 89.0449 32.6942C91.2209 32.6729 93.0555 32.0009 94.5489 30.6782C96.0422 29.3342 96.7889 27.6916 96.7889 25.7502C96.7889 23.8089 96.0209 22.3582 94.4849 21.3982C92.9489 20.4382 91.1035 19.9582 88.9489 19.9582C86.8155 19.9582 84.9275 20.4489 83.2849 21.4302C83.3915 22.8169 83.4449 26.0489 83.4449 31.1262ZM111.422 31.6702L111.262 35.3502C111.262 37.2062 111.476 38.4542 111.902 39.0942C112.158 39.5209 112.51 39.7342 112.958 39.7342C113.086 39.7342 113.268 39.7022 113.502 39.6382C113.95 39.5102 114.324 39.5742 114.622 39.8302C114.473 40.5769 113.726 40.9502 112.382 40.9502C111.465 40.9502 110.857 40.5662 110.558 39.7982C110.324 39.2222 110.153 38.5076 110.046 37.6542C109.94 36.7796 109.854 36.1822 109.79 35.8622C108.404 38.5076 107.06 40.1182 105.758 40.6942C105.097 40.9929 104.329 41.1422 103.454 41.1422C102.58 41.1422 101.897 40.7262 101.406 39.8942C100.937 39.0409 100.702 37.8036 100.702 36.1822C100.702 34.5609 100.969 32.8649 101.502 31.0942C102.036 29.3022 102.814 27.7982 103.838 26.5822C104.862 25.3449 105.982 24.7262 107.198 24.7262C108.948 24.7262 110.11 25.4516 110.686 26.9022C111.177 28.1396 111.422 29.7289 111.422 31.6702ZM103.582 30.6462C103.284 31.7982 103.06 32.8969 102.91 33.9422C102.761 34.9662 102.686 35.8836 102.686 36.6942C102.686 37.4836 102.846 38.1662 103.166 38.7422C103.508 39.3182 103.945 39.6062 104.478 39.6062C105.63 39.6062 106.74 38.5182 107.806 36.3422C108.873 34.1662 109.406 32.1396 109.406 30.2622C109.406 29.0462 109.086 28.0436 108.446 27.2542C108.02 26.7422 107.454 26.4862 106.75 26.4862C106.068 26.4862 105.438 26.8916 104.862 27.7022C104.308 28.4916 103.881 29.4729 103.582 30.6462ZM117.541 39.8942C117.605 41.6222 117.819 44.0649 118.181 47.2222C117.776 47.6276 117.296 47.8302 116.741 47.8302C116.635 47.8302 116.517 47.8196 116.389 47.7982C116.368 46.9662 116.208 45.0782 115.909 42.1342C115.632 39.1902 115.493 36.9396 115.493 35.3822C115.493 33.8036 115.589 32.4382 115.781 31.2862C115.973 30.1342 116.304 29.0569 116.773 28.0542C117.733 25.9849 119.504 24.9502 122.085 24.9502C123.685 24.9502 124.997 25.8249 126.021 27.5742C127.045 29.3236 127.557 31.3609 127.557 33.6862C127.557 35.5209 126.96 37.1316 125.765 38.5182C124.571 39.9049 122.917 40.5982 120.805 40.5982C119.504 40.5982 118.416 40.3636 117.541 39.8942ZM121.829 26.6782C120.016 26.6782 118.811 27.6169 118.213 29.4942C117.701 31.0942 117.445 33.3022 117.445 36.1182C117.445 37.1422 117.456 37.8996 117.477 38.3902C119.376 38.7956 120.667 38.9982 121.349 38.9982C122.587 38.9982 123.568 38.5076 124.293 37.5262C125.019 36.5236 125.381 35.3076 125.381 33.8782C125.381 31.7662 125.061 30.0382 124.421 28.6942C123.803 27.3502 122.939 26.6782 121.829 26.6782ZM132.38 34.3902C132.337 34.8169 132.316 35.1049 132.316 35.2542C132.316 36.5342 132.7 37.5262 133.468 38.2302C134.257 38.9342 135.185 39.2862 136.252 39.2862C137.319 39.2862 138.183 39.1369 138.844 38.8382C139.527 38.5396 140.017 38.2196 140.316 37.8782C141.084 36.9182 141.788 36.4382 142.428 36.4382C142.663 36.4382 142.94 36.5022 143.26 36.6302C143.047 37.6756 142.236 38.6356 140.828 39.5102C139.441 40.3636 137.692 40.7902 135.58 40.7902C134.087 40.7902 132.796 40.3209 131.708 39.3822C130.641 38.4222 130.108 37.1209 130.108 35.4782C130.108 33.8356 130.428 32.2462 131.068 30.7102C131.729 29.1529 132.668 27.8302 133.884 26.7422C135.121 25.6329 136.369 25.0782 137.628 25.0782C138.908 25.0782 139.932 25.3449 140.7 25.8782C141.489 26.3902 141.884 27.1476 141.884 28.1502C141.884 30.0062 141.052 31.5422 139.388 32.7582C137.745 33.9529 135.996 34.5502 134.14 34.5502C133.649 34.5502 133.063 34.4969 132.38 34.3902ZM134.812 33.3342C135.815 33.3342 136.711 33.0142 137.5 32.3742C138.289 31.7342 138.844 31.0622 139.164 30.3582C139.505 29.6542 139.676 29.0142 139.676 28.4382C139.676 27.8622 139.452 27.3609 139.004 26.9342C138.556 26.4862 138.033 26.2622 137.436 26.2622C136.369 26.2622 135.377 26.9982 134.46 28.4702C133.564 29.9422 132.924 31.4676 132.54 33.0462C133.479 33.2382 134.236 33.3342 134.812 33.3342ZM149.009 37.7502L149.105 39.5742C149.105 40.0436 148.966 40.3742 148.689 40.5662C148.433 40.7369 148.166 40.8222 147.889 40.8222C147.633 40.8222 147.366 40.7796 147.089 40.6942C146.62 38.2196 146.257 35.1369 146.001 31.4462C145.766 27.7556 145.628 25.6649 145.585 25.1742C145.905 24.8756 146.236 24.7262 146.577 24.7262C146.94 24.7262 147.26 24.7689 147.537 24.8542C147.622 25.4729 147.686 26.8382 147.729 28.9502C147.772 31.0622 147.825 32.3849 147.889 32.9182C148.188 31.1262 148.721 29.4516 149.489 27.8942C149.916 27.0196 150.47 26.3262 151.153 25.8142C151.857 25.2809 152.604 25.0142 153.393 25.0142C154.204 25.0142 154.94 25.3769 155.601 26.1022C156.284 26.8062 156.625 27.4462 156.625 28.0222C156.625 28.2356 156.497 28.4062 156.241 28.5342C155.985 28.6409 155.697 28.6942 155.377 28.6942C155.078 28.6942 154.844 28.5769 154.673 28.3422C154.502 28.1076 154.385 27.8516 154.321 27.5742C154.257 27.2756 154.118 27.0089 153.905 26.7742C153.692 26.5396 153.404 26.4222 153.041 26.4222C152.081 26.4222 151.26 27.2862 150.577 29.0142C149.532 31.5956 149.009 34.5076 149.009 37.7502Z" fill="#0C0C0C"/>
<path d="M14.3009 30.5822L14.8009 30.5896V30.5822H14.3009ZM13.8849 21.7822H13.3849V21.8095L13.3878 21.8365L13.8849 21.7822ZM16.9249 18.9342L16.8009 18.4497L16.7905 18.4526L16.9249 18.9342ZM29.6609 20.1182L29.3542 20.5132L29.36 20.5176L29.6609 20.1182ZM28.9889 32.0542L28.6902 31.6532L28.9889 32.0542ZM16.5089 33.4302L16.6864 32.9628L16.0789 32.7321L16.0116 33.3784L16.5089 33.4302ZM16.3489 37.5902H15.8488L15.849 37.6004L16.3489 37.5902ZM16.3809 39.1582H16.881L16.8808 39.148L16.3809 39.1582ZM16.3489 40.7582L16.7557 41.0488L16.8427 40.927L16.8485 40.7774L16.3489 40.7582ZM15.9969 41.0782L15.7733 40.631L15.9969 41.0782ZM15.7089 41.2062L15.5507 40.7319L15.4388 40.7692L15.3553 40.8527L15.7089 41.2062ZM15.4849 41.3022L15.3868 40.8119H15.3868L15.4849 41.3022ZM15.2609 41.3342V40.8342H15.1797L15.1027 40.8599L15.2609 41.3342ZM14.2689 41.3982L13.769 41.4116L13.782 41.8982H14.2689V41.3982ZM14.2049 37.0782L13.7049 37.0708V37.0782H14.2049ZM16.4449 31.1262H15.9449V31.3928L16.1662 31.5414L16.4449 31.1262ZM22.0449 32.6942V33.1943L22.0498 33.1942L22.0449 32.6942ZM27.5489 30.6782L27.8804 31.0525L27.8833 31.0499L27.5489 30.6782ZM27.4849 21.3982L27.2199 21.8222L27.4849 21.3982ZM16.2849 21.4302L16.0284 21.001L15.7626 21.1598L15.7863 21.4686L16.2849 21.4302ZM14.8009 30.5822C14.8009 27.2412 14.6617 24.2891 14.3819 21.7279L13.3878 21.8365C13.6627 24.3527 13.8009 27.2673 13.8009 30.5822H14.8009ZM14.3849 21.7822C14.3849 21.2822 14.5864 20.8372 15.0482 20.4287L14.3856 19.6797C13.738 20.2526 13.3849 20.9596 13.3849 21.7822H14.3849ZM15.0482 20.4287C15.5323 20.0004 16.1947 19.6571 17.0593 19.4158L16.7905 18.4526C15.8204 18.7234 15.0107 19.1267 14.3856 19.6797L15.0482 20.4287ZM17.0488 19.4186C18.8371 18.9612 20.8108 18.7302 22.9729 18.7302V17.7302C20.7402 17.7302 18.682 17.9686 16.8009 18.4498L17.0488 19.4186ZM22.9729 18.7302C25.741 18.7302 27.8487 19.3444 29.3543 20.5132L29.9675 19.7233C28.2303 18.3747 25.8794 17.7302 22.9729 17.7302V18.7302ZM29.36 20.5176C30.8457 21.6366 31.6249 23.3776 31.6249 25.8462H32.6249C32.6249 23.1522 31.7614 21.0745 29.9617 19.7189L29.36 20.5176ZM31.6249 25.8462C31.6249 28.2678 30.6557 30.1892 28.6902 31.6532L29.2876 32.4552C31.5034 30.8046 32.6249 28.5874 32.6249 25.8462H31.6249ZM28.6902 31.6532C26.6987 33.1367 24.2585 33.8902 21.3409 33.8902V34.8902C24.4393 34.8902 27.0977 34.0864 29.2876 32.4552L28.6902 31.6532ZM21.3409 33.8902C19.8751 33.8902 18.3247 33.5849 16.6864 32.9628L16.3314 33.8977C18.0637 34.5555 19.7347 34.8902 21.3409 34.8902V33.8902ZM16.0116 33.3784C15.9023 34.4274 15.8489 35.8337 15.8489 37.5902H16.8489C16.8489 35.8481 16.9021 34.481 17.0062 33.482L16.0116 33.3784ZM15.849 37.6004L15.881 39.1684L16.8808 39.148L16.8488 37.58L15.849 37.6004ZM15.8809 39.1582C15.8809 39.6633 15.8703 40.1902 15.8492 40.739L16.8485 40.7774C16.8701 40.2169 16.8809 39.6771 16.8809 39.1582H15.8809ZM15.942 40.4676C15.8697 40.5688 15.8106 40.6123 15.7733 40.631L16.2205 41.5254C16.4391 41.4161 16.6147 41.2463 16.7557 41.0488L15.942 40.4676ZM15.7733 40.631C15.6484 40.6934 15.579 40.7225 15.5507 40.7319L15.867 41.6806C15.9667 41.6473 16.0893 41.591 16.2205 41.5254L15.7733 40.631ZM15.3553 40.8527C15.374 40.834 15.3909 40.8218 15.4024 40.8144C15.4139 40.8071 15.4218 40.8036 15.4239 40.8027C15.427 40.8013 15.4168 40.8059 15.3868 40.8119L15.5829 41.7925C15.7189 41.7653 15.9135 41.7087 16.0624 41.5598L15.3553 40.8527ZM15.3868 40.8119C15.339 40.8215 15.3033 40.8277 15.2782 40.8313C15.2657 40.833 15.2578 40.8339 15.2536 40.8343C15.2488 40.8347 15.252 40.8342 15.2609 40.8342V41.8342C15.3591 41.8342 15.4785 41.8134 15.5829 41.7925L15.3868 40.8119ZM15.1027 40.8599C15.0372 40.8817 14.9434 40.8982 14.8129 40.8982V41.8982C15.0237 41.8982 15.2285 41.872 15.419 41.8086L15.1027 40.8599ZM14.8129 40.8982H14.2689V41.8982H14.8129V40.8982ZM14.7687 41.3849C14.7261 39.7883 14.7049 38.3529 14.7049 37.0782H13.7049C13.7049 38.3636 13.7263 39.8082 13.769 41.4116L14.7687 41.3849ZM14.7048 37.0856L14.8008 30.5896L13.8009 30.5748L13.7049 37.0708L14.7048 37.0856ZM16.1662 31.5414C17.8185 32.6505 19.7859 33.1942 22.0449 33.1942V32.1942C19.9518 32.1942 18.1859 31.6927 16.7235 30.7111L16.1662 31.5414ZM22.0498 33.1942C24.3344 33.1718 26.2884 32.4626 27.8804 31.0525L27.2173 30.3039C25.8226 31.5392 24.1073 32.174 22.04 32.1943L22.0498 33.1942ZM27.8833 31.0499C29.4779 29.6148 30.2889 27.8388 30.2889 25.7502H29.2889C29.2889 27.5443 28.6065 29.0536 27.2144 30.3066L27.8833 31.0499ZM30.2889 25.7502C30.2889 23.6514 29.4442 22.0332 27.7499 20.9742L27.2199 21.8222C28.5975 22.6832 29.2889 23.9664 29.2889 25.7502H30.2889ZM27.7499 20.9742C26.1204 19.9558 24.1793 19.4582 21.9489 19.4582V20.4582C24.0278 20.4582 25.7773 20.9206 27.2199 21.8222L27.7499 20.9742ZM21.9489 19.4582C19.7359 19.4582 17.7573 19.9682 16.0284 21.001L16.5413 21.8595C18.0978 20.9296 19.8952 20.4582 21.9489 20.4582V19.4582ZM15.7863 21.4686C15.8912 22.8321 15.9449 26.0429 15.9449 31.1262H16.9449C16.9449 26.0549 16.8918 22.8017 16.7834 21.3919L15.7863 21.4686ZM35.9424 34.3902L36.0196 33.8962L35.4974 33.8146L35.4448 34.3405L35.9424 34.3902ZM37.0304 38.2302L36.6925 38.5988L36.6976 38.6034L37.0304 38.2302ZM42.4064 38.8382L42.2059 38.3801L42.2006 38.3825L42.4064 38.8382ZM43.8784 37.8782L44.2547 38.2075L44.2619 38.1992L44.2688 38.1906L43.8784 37.8782ZM46.8224 36.6302L47.3123 36.7302L47.3958 36.3211L47.0081 36.166L46.8224 36.6302ZM44.3904 39.5102L44.6524 39.9361L44.6542 39.935L44.3904 39.5102ZM35.2704 39.3822L34.9358 39.754L34.9437 39.7608L35.2704 39.3822ZM34.6304 30.7102L34.1701 30.5148L34.1688 30.5179L34.6304 30.7102ZM37.4464 26.7422L37.7798 27.1149L37.7801 27.1145L37.4464 26.7422ZM44.2624 25.8782L43.9772 26.2889L43.9836 26.2934L43.9903 26.2977L44.2624 25.8782ZM42.9504 32.7582L43.2444 33.1626L43.2454 33.1619L42.9504 32.7582ZM41.0624 32.3742L41.3773 32.7626L41.0624 32.3742ZM42.7264 30.3582L42.2763 30.14L42.2712 30.1513L42.7264 30.3582ZM42.5664 26.9342L42.2127 27.2879L42.2215 27.2963L42.5664 26.9342ZM38.0224 28.4702L37.598 28.2058L37.5953 28.2103L38.0224 28.4702ZM36.1024 33.0462L35.6165 32.9281L35.4939 33.4321L36.0022 33.5361L36.1024 33.0462ZM35.4448 34.3405C35.4025 34.7638 35.3784 35.0761 35.3784 35.2542H36.3784C36.3784 35.1337 36.3969 34.87 36.4399 34.44L35.4448 34.3405ZM35.3784 35.2542C35.3784 36.6399 35.7982 37.7791 36.6925 38.5988L37.3682 37.8617C36.7265 37.2734 36.3784 36.4286 36.3784 35.2542H35.3784ZM36.6976 38.6034C37.5794 39.3898 38.6261 39.7862 39.8144 39.7862V38.7862C38.8693 38.7862 38.06 38.4786 37.3632 37.8571L36.6976 38.6034ZM39.8144 39.7862C40.9214 39.7862 41.8631 39.6322 42.6122 39.2939L42.2006 38.3825C41.6269 38.6416 40.8406 38.7862 39.8144 38.7862V39.7862ZM42.6068 39.2963C43.3187 38.9848 43.8861 38.6287 44.2547 38.2075L43.5021 37.549C43.2733 37.8105 42.8593 38.0943 42.206 38.3802L42.6068 39.2963ZM44.2688 38.1906C45.022 37.2491 45.5957 36.9382 45.9904 36.9382V35.9382C45.105 35.9382 44.2707 36.5874 43.4879 37.5659L44.2688 38.1906ZM45.9904 36.9382C46.139 36.9382 46.3505 36.98 46.6367 37.0945L47.0081 36.166C46.6542 36.0245 46.3111 35.9382 45.9904 35.9382V36.9382ZM46.3325 36.5303C46.1587 37.3819 45.4813 38.2439 44.1265 39.0855L44.6542 39.935C46.1155 39.0272 47.0594 37.9693 47.3123 36.7302L46.3325 36.5303ZM44.1283 39.0844C42.8406 39.8768 41.1888 40.2902 39.1424 40.2902V41.2902C41.3199 41.2902 43.1667 40.8503 44.6524 39.9361L44.1283 39.0844ZM39.1424 40.2902C37.7638 40.2902 36.5904 39.8607 35.597 39.0037L34.9437 39.7608C36.1264 40.7811 37.5343 41.2902 39.1424 41.2902V40.2902ZM35.6048 39.0106C34.6593 38.1596 34.1704 37.0018 34.1704 35.4782H33.1704C33.1704 37.24 33.7481 38.6849 34.9359 39.7539L35.6048 39.0106ZM34.1704 35.4782C34.1704 33.9025 34.477 32.3784 35.0919 30.9025L34.1688 30.5179C33.5038 32.114 33.1704 33.7687 33.1704 35.4782H34.1704ZM35.0906 30.9057C35.7243 29.4134 36.6206 28.152 37.7798 27.1149L37.113 26.3696C35.8401 27.5085 34.8591 28.8924 34.1701 30.5148L35.0906 30.9057ZM37.7801 27.1145C38.9557 26.0606 40.0899 25.5782 41.1904 25.5782V24.5782C39.7735 24.5782 38.4117 25.2052 37.1126 26.3699L37.7801 27.1145ZM41.1904 25.5782C42.4051 25.5782 43.3187 25.8316 43.9772 26.2889L44.5476 25.4675C43.67 24.8582 42.5356 24.5782 41.1904 24.5782V25.5782ZM43.9903 26.2977C44.6267 26.7105 44.9464 27.3037 44.9464 28.1502H45.9464C45.9464 26.9915 45.4767 26.07 44.5345 25.4587L43.9903 26.2977ZM44.9464 28.1502C44.9464 29.8273 44.207 31.2207 42.6554 32.3545L43.2454 33.1619C45.0218 31.8638 45.9464 30.1851 45.9464 28.1502H44.9464ZM42.6563 32.3539C41.0906 33.4926 39.4427 34.0502 37.7024 34.0502V35.0502C39.6741 35.0502 41.5248 34.4132 43.2444 33.1626L42.6563 32.3539ZM37.7024 34.0502C37.2456 34.0502 36.6861 34.0004 36.0196 33.8962L35.8652 34.8842C36.5639 34.9934 37.1778 35.0502 37.7024 35.0502V34.0502ZM38.3744 33.8342C39.4934 33.8342 40.5002 33.4738 41.3773 32.7626L40.7475 31.9859C40.0459 32.5547 39.2607 32.8342 38.3744 32.8342V33.8342ZM41.3773 32.7626C42.2086 32.0885 42.821 31.3583 43.1815 30.5651L42.2712 30.1513C41.9917 30.7662 41.4948 31.3799 40.7475 31.9859L41.3773 32.7626ZM43.1763 30.5764C43.5394 29.8275 43.7384 29.1118 43.7384 28.4382H42.7384C42.7384 28.9166 42.596 29.481 42.2765 30.1401L43.1763 30.5764ZM43.7384 28.4382C43.7384 27.7145 43.4501 27.0854 42.9112 26.5722L42.2215 27.2963C42.5786 27.6364 42.7384 28.01 42.7384 28.4382H43.7384ZM42.9199 26.5807C42.3845 26.0452 41.737 25.7622 40.9984 25.7622V26.7622C41.4544 26.7622 41.8523 26.9272 42.2128 27.2878L42.9199 26.5807ZM40.9984 25.7622C39.6709 25.7622 38.5475 26.6822 37.598 28.2058L38.4467 28.7347C39.3319 27.3142 40.1925 26.7622 40.9984 26.7622V25.7622ZM37.5953 28.2103C36.6741 29.7235 36.0134 31.2964 35.6165 32.9281L36.5882 33.1644C36.9593 31.6387 37.5786 30.1609 38.4495 28.7302L37.5953 28.2103ZM36.0022 33.5361C36.9552 33.731 37.7499 33.8342 38.3744 33.8342V32.8342C37.8468 32.8342 37.1269 32.7454 36.2026 32.5564L36.0022 33.5361ZM62.5874 39.9902L62.9503 40.3341L63.4471 39.8097L62.7814 39.5294L62.5874 39.9902ZM59.2274 39.1262L59.6822 38.9186L59.2274 39.1262ZM58.4274 35.5422L57.9278 35.5649L57.9283 35.5725L58.4274 35.5422ZM58.2994 31.3182L58.7993 31.3107L58.2994 31.3182ZM57.9474 27.7342L57.4566 27.8303L57.4588 27.8404L57.9474 27.7342ZM54.9074 28.2782L54.4426 28.0938L54.4401 28.1002L54.9074 28.2782ZM53.8194 32.7582L54.3152 32.8228L54.3152 32.8226L53.8194 32.7582ZM52.0914 40.4702L52.315 40.9174L52.3875 40.8812L52.4449 40.8238L52.0914 40.4702ZM50.3954 40.6622L49.9079 40.7735L49.9705 41.0476L50.2373 41.1366L50.3954 40.6622ZM49.5314 30.5182L49.0314 30.5272L49.0315 30.5316L49.5314 30.5182ZM49.4034 25.8782L49.126 25.4622L48.8869 25.6216L48.9043 25.9085L49.4034 25.8782ZM51.3234 25.5262L51.82 25.4685L51.7833 25.1525L51.4815 25.0519L51.3234 25.5262ZM51.4834 31.1582H50.9833L50.9834 31.162L51.4834 31.1582ZM51.5474 36.0542L51.048 36.0792L52.0338 36.17L51.5474 36.0542ZM51.9314 33.8782L51.4383 33.7943L51.4368 33.8046L51.9314 33.8782ZM52.3794 31.4142L52.8697 31.5123L52.8703 31.5092L52.3794 31.4142ZM52.9874 29.1102L52.5107 28.9591V28.9591L52.9874 29.1102ZM53.9154 27.0302L54.3315 27.3076L54.3365 27.2998L53.9154 27.0302ZM55.3234 25.6862L55.5829 26.1138L55.5937 26.1068L55.3234 25.6862ZM59.5154 26.4862L59.0659 26.7057L59.0724 26.7182L59.5154 26.4862ZM60.2834 29.8462L60.7831 29.8304L60.2834 29.8462ZM60.3474 33.9422H59.8473L59.8474 33.9499L60.3474 33.9422ZM60.8594 37.7502L60.3775 37.8841L60.38 37.8923L60.8594 37.7502ZM62.2244 39.6464C61.9205 39.9671 61.6093 40.0982 61.2754 40.0982V41.0982C61.9228 41.0982 62.4862 40.824 62.9503 40.3341L62.2244 39.6464ZM61.2754 40.0982C60.9114 40.0982 60.6157 40.0028 60.3672 39.8242C60.1138 39.6421 59.8801 39.352 59.6822 38.9186L58.7725 39.3339C59.0227 39.8818 59.3542 40.3277 59.7835 40.6362C60.2177 40.9483 60.722 41.0982 61.2754 41.0982V40.0982ZM59.6822 38.9186C59.2662 38.0074 59.0091 36.8765 58.9264 35.512L57.9283 35.5725C58.0162 37.0239 58.2925 38.2824 58.7725 39.3339L59.6822 38.9186ZM58.9268 35.5195C58.8631 34.1166 58.8206 32.7136 58.7993 31.3107L57.7994 31.3258C57.8208 32.7389 57.8637 34.1519 57.9279 35.5649L58.9268 35.5195ZM58.7993 31.3107C58.7777 29.8816 58.6585 28.6518 58.436 27.628L57.4588 27.8404C57.6629 28.7793 57.7784 29.9389 57.7994 31.3258L58.7993 31.3107ZM58.4381 27.6382C58.3355 27.1138 58.1744 26.6602 57.9213 26.3275C57.6522 25.9738 57.2798 25.7622 56.8274 25.7622V26.7622C56.9296 26.7622 57.0212 26.796 57.1255 26.933C57.2456 27.091 57.3673 27.3733 57.4567 27.8302L58.4381 27.6382ZM56.8274 25.7622C56.2854 25.7622 55.8152 26.012 55.4253 26.4214C55.0435 26.8223 54.7212 27.3919 54.4426 28.0938L55.3721 28.4627C55.6269 27.8206 55.8913 27.3821 56.1494 27.1111C56.3995 26.8485 56.6227 26.7622 56.8274 26.7622V25.7622ZM54.4401 28.1002C53.9123 29.4859 53.5412 31.018 53.3235 32.6938L54.3152 32.8226C54.5242 31.2131 54.8785 29.7586 55.3746 28.4562L54.4401 28.1002ZM53.3236 32.6937C53.0256 34.9814 52.7346 36.7534 52.4515 38.0169C52.3097 38.6494 52.1724 39.1433 52.0412 39.5061C51.903 39.8881 51.793 40.0614 51.7378 40.1167L52.4449 40.8238C52.667 40.6017 52.8371 40.2457 52.9815 39.8463C53.133 39.4278 53.281 38.8884 53.4273 38.2356C53.7201 36.9284 54.0158 35.1218 54.3152 32.8228L53.3236 32.6937ZM51.8678 40.023C51.5188 40.1975 51.2681 40.2582 51.0994 40.2582V41.2582C51.4853 41.2582 51.896 41.127 52.315 40.9174L51.8678 40.023ZM51.0994 40.2582C50.8573 40.2582 50.6795 40.2299 50.5535 40.1879L50.2373 41.1366C50.4952 41.2226 50.7867 41.2582 51.0994 41.2582V40.2582ZM50.8828 40.551C50.447 38.6415 50.1592 35.3046 50.0312 30.5049L49.0315 30.5316C49.1595 35.3318 49.4478 38.7576 49.9079 40.7735L50.8828 40.551ZM50.0313 30.5093C49.9887 28.1227 49.9459 26.5647 49.9024 25.848L48.9043 25.9085C48.9462 26.5998 48.9887 28.1351 49.0314 30.5272L50.0313 30.5093ZM49.6807 26.2943C50.0968 26.0169 50.3808 25.9302 50.5554 25.9302V24.9302C50.0899 24.9302 49.606 25.1422 49.126 25.4622L49.6807 26.2943ZM50.5554 25.9302C50.8491 25.9302 51.045 25.9605 51.1652 26.0006L51.4815 25.0519C51.2177 24.964 50.9017 24.9302 50.5554 24.9302V25.9302ZM50.8267 25.584C50.9295 26.4676 50.9834 28.3155 50.9834 31.1582H51.9834C51.9834 28.3263 51.9306 26.4196 51.82 25.4685L50.8267 25.584ZM50.9834 31.162C51.0047 33.9921 51.026 35.6389 51.048 36.0792L52.0467 36.0293C52.0261 35.6162 52.0047 33.999 51.9833 31.1545L50.9834 31.162ZM52.0338 36.17C52.1458 35.6996 52.2763 34.9561 52.4259 33.9519L51.4368 33.8046C51.2877 34.8057 51.1623 35.5129 51.061 35.9384L52.0338 36.17ZM52.4243 33.9621C52.5945 32.9619 52.743 32.1458 52.8697 31.5123L51.8891 31.3162C51.7598 31.9627 51.6095 32.7892 51.4385 33.7943L52.4243 33.9621ZM52.8703 31.5092C52.9935 30.8723 53.1906 30.1237 53.464 29.2614L52.5107 28.9591C52.2295 29.8461 52.0212 30.6335 51.8885 31.3192L52.8703 31.5092ZM53.464 29.2614C53.7334 28.4117 54.0255 27.7665 54.3314 27.3076L53.4993 26.7529C53.1226 27.318 52.796 28.0594 52.5107 28.9591L53.464 29.2614ZM54.3365 27.2998C54.6326 26.8371 55.0439 26.4408 55.5829 26.1136L55.0639 25.2588C54.4082 25.6569 53.8808 26.1567 53.4942 26.7607L54.3365 27.2998ZM55.5937 26.1068C56.1062 25.7774 56.6834 25.6102 57.3394 25.6102V24.6102C56.502 24.6102 55.7352 24.8271 55.053 25.2656L55.5937 26.1068ZM57.3394 25.6102C57.7623 25.6102 58.0981 25.7061 58.3681 25.8768C58.6387 26.0479 58.875 26.3143 59.0661 26.7056L59.9646 26.2668C59.7078 25.7408 59.3574 25.3192 58.9026 25.0316C58.4473 24.7437 57.9191 24.6102 57.3394 24.6102V25.6102ZM59.0724 26.7182C59.4972 27.5292 59.7426 28.5698 59.7836 29.8621L60.7831 29.8304C60.7388 28.4347 60.4722 27.2353 59.9583 26.2542L59.0724 26.7182ZM59.7836 29.8621C59.8261 31.2006 59.8474 32.5607 59.8474 33.9422H60.8474C60.8474 32.5504 60.826 31.1798 60.7831 29.8304L59.7836 29.8621ZM59.8474 33.9499C59.8693 35.3726 60.0445 36.685 60.3776 37.8841L61.3411 37.6164C61.0342 36.5114 60.8681 35.2852 60.8473 33.9345L59.8474 33.9499ZM60.38 37.8923C60.7474 39.1323 61.3988 40.0323 62.3933 40.451L62.7814 39.5294C62.1546 39.2655 61.654 38.6722 61.3388 37.6082L60.38 37.8923ZM75.4701 16.7262L75.9199 16.9446L75.922 16.9403L75.4701 16.7262ZM77.6781 16.4062L78.1279 16.6246L78.1535 16.5719L78.1662 16.5147L77.6781 16.4062ZM72.0781 30.0062L71.6101 29.8301L72.0781 30.0062ZM65.7741 44.5022L66.2008 44.763L66.2081 44.7509L66.2148 44.7385L65.7741 44.5022ZM63.5661 44.8222L63.9197 45.1758L63.9719 45.1236L64.0068 45.0585L63.5661 44.8222ZM69.8701 30.3262L70.3381 30.5023L69.8701 30.3262ZM75.922 16.9403C75.9442 16.8934 76.0052 16.8132 76.2068 16.7409C76.4137 16.6667 76.7256 16.6182 77.1661 16.6182V15.6182C76.6679 15.6182 76.2278 15.6711 75.8694 15.7996C75.5057 15.93 75.1881 16.1537 75.0182 16.5122L75.922 16.9403ZM77.1661 16.6182C77.2431 16.6182 77.2957 16.6232 77.3288 16.6289C77.3645 16.6351 77.3605 16.6393 77.337 16.626C77.309 16.6103 77.2506 16.5674 77.2132 16.4833C77.1759 16.3994 77.1833 16.328 77.19 16.2978L78.1662 16.5147C78.1943 16.3885 78.1963 16.233 78.127 16.0772C78.0576 15.9211 77.9406 15.8182 77.8272 15.7544C77.6244 15.6404 77.3761 15.6182 77.1661 15.6182V16.6182ZM77.2283 16.1879C75.7886 19.1533 73.9153 23.7043 71.6101 29.8301L72.5461 30.1823C74.8489 24.0628 76.709 19.5471 78.1279 16.6246L77.2283 16.1879ZM71.6101 29.8301C69.3097 35.9432 67.2173 40.7523 65.3335 44.266L66.2148 44.7385C68.1283 41.1695 70.2385 36.3146 72.5461 30.1823L71.6101 29.8301ZM65.3475 44.2415C65.3086 44.3051 65.2217 44.39 65.0133 44.4608C64.8015 44.5327 64.496 44.5782 64.0781 44.5782V45.5782C64.5562 45.5782 64.9814 45.5277 65.3349 45.4077C65.6919 45.2864 66.005 45.0833 66.2008 44.763L65.3475 44.2415ZM64.0781 44.5782C63.8977 44.5782 63.8088 44.5645 63.7799 44.5565C63.7642 44.5521 63.8049 44.5597 63.8582 44.6041C63.8881 44.629 63.9258 44.6688 63.9558 44.7271C63.9867 44.7873 64.0021 44.8534 64.0021 44.9182H63.0021C63.0021 45.1194 63.1018 45.2755 63.218 45.3723C63.3193 45.4568 63.432 45.4977 63.5123 45.52C63.6754 45.5653 63.8745 45.5782 64.0781 45.5782V44.5782ZM64.0021 44.9182C64.0021 44.9944 63.9836 45.0528 63.9704 45.0859C63.9567 45.1201 63.942 45.1438 63.9341 45.1556C63.9193 45.1778 63.9101 45.1854 63.9197 45.1758L63.2126 44.4687C63.1795 44.5018 63.1383 44.5466 63.1021 44.6009C63.0748 44.6418 63.0021 44.7573 63.0021 44.9182H64.0021ZM64.0068 45.0585C65.9203 41.4895 68.0305 36.6346 70.3381 30.5023L69.4021 30.1501C67.1017 36.2632 65.0093 41.0723 63.1255 44.586L64.0068 45.0585ZM70.3381 30.5023C72.6409 24.3828 74.501 19.8671 75.9199 16.9446L75.0203 16.5079C73.5806 19.4733 71.7073 24.0243 69.4021 30.1501L70.3381 30.5023ZM81.3009 30.5822L81.8009 30.5896V30.5822H81.3009ZM80.8849 21.7822H80.3849V21.8095L80.3878 21.8365L80.8849 21.7822ZM83.9249 18.9342L83.8009 18.4497L83.7905 18.4526L83.9249 18.9342ZM96.6609 20.1182L96.3542 20.5132L96.36 20.5176L96.6609 20.1182ZM95.9889 32.0542L95.6902 31.6532L95.9889 32.0542ZM83.5089 33.4302L83.6864 32.9628L83.0789 32.7321L83.0116 33.3784L83.5089 33.4302ZM83.3489 37.5902H82.8488L82.849 37.6004L83.3489 37.5902ZM83.3809 39.1582H83.881L83.8808 39.148L83.3809 39.1582ZM83.3489 40.7582L83.7557 41.0488L83.8427 40.927L83.8485 40.7774L83.3489 40.7582ZM82.9969 41.0782L82.7733 40.631L82.9969 41.0782ZM82.7089 41.2062L82.5508 40.7319L82.4388 40.7692L82.3553 40.8527L82.7089 41.2062ZM82.4849 41.3022L82.3868 40.8119L82.4849 41.3022ZM82.2609 41.3342V40.8342H82.1797L82.1028 40.8599L82.2609 41.3342ZM81.2689 41.3982L80.769 41.4116L80.782 41.8982H81.2689V41.3982ZM81.2049 37.0782L80.7049 37.0708V37.0782H81.2049ZM83.4449 31.1262H82.9449V31.3928L83.1662 31.5414L83.4449 31.1262ZM89.0449 32.6942V33.1943L89.0498 33.1942L89.0449 32.6942ZM94.5489 30.6782L94.8804 31.0525L94.8833 31.0499L94.5489 30.6782ZM94.4849 21.3982L94.2199 21.8222L94.4849 21.3982ZM83.2849 21.4302L83.0284 21.001L82.7626 21.1598L82.7863 21.4686L83.2849 21.4302ZM81.8009 30.5822C81.8009 27.2412 81.6617 24.2891 81.3819 21.7279L80.3878 21.8365C80.6627 24.3527 80.8009 27.2673 80.8009 30.5822H81.8009ZM81.3849 21.7822C81.3849 21.2822 81.5864 20.8372 82.0481 20.4287L81.3856 19.6797C80.738 20.2526 80.3849 20.9596 80.3849 21.7822H81.3849ZM82.0481 20.4287C82.5323 20.0004 83.1947 19.6571 84.0593 19.4158L83.7905 18.4526C82.8204 18.7234 82.0107 19.1267 81.3856 19.6797L82.0481 20.4287ZM84.0488 19.4186C85.8371 18.9612 87.8108 18.7302 89.9729 18.7302V17.7302C87.7402 17.7302 85.682 17.9686 83.8009 18.4498L84.0488 19.4186ZM89.9729 18.7302C92.741 18.7302 94.8487 19.3444 96.3543 20.5132L96.9675 19.7233C95.2303 18.3747 92.8794 17.7302 89.9729 17.7302V18.7302ZM96.36 20.5176C97.8457 21.6366 98.6249 23.3776 98.6249 25.8462H99.6249C99.6249 23.1522 98.7614 21.0745 96.9617 19.7189L96.36 20.5176ZM98.6249 25.8462C98.6249 28.2678 97.6557 30.1892 95.6902 31.6532L96.2876 32.4552C98.5034 30.8046 99.6249 28.5874 99.6249 25.8462H98.6249ZM95.6902 31.6532C93.6987 33.1367 91.2585 33.8902 88.3409 33.8902V34.8902C91.4393 34.8902 94.0977 34.0864 96.2876 32.4552L95.6902 31.6532ZM88.3409 33.8902C86.8751 33.8902 85.3247 33.5849 83.6864 32.9628L83.3314 33.8977C85.0637 34.5555 86.7347 34.8902 88.3409 34.8902V33.8902ZM83.0116 33.3784C82.9023 34.4274 82.8489 35.8337 82.8489 37.5902H83.8489C83.8489 35.8481 83.9021 34.481 84.0062 33.482L83.0116 33.3784ZM82.849 37.6004L82.881 39.1684L83.8808 39.148L83.8488 37.58L82.849 37.6004ZM82.8809 39.1582C82.8809 39.6633 82.8703 40.1902 82.8492 40.739L83.8485 40.7774C83.8701 40.2169 83.8809 39.6771 83.8809 39.1582H82.8809ZM82.942 40.4676C82.8697 40.5688 82.8106 40.6123 82.7733 40.631L83.2205 41.5254C83.4391 41.4161 83.6147 41.2463 83.7557 41.0488L82.942 40.4676ZM82.7733 40.631C82.6484 40.6934 82.579 40.7225 82.5508 40.7319L82.867 41.6806C82.9667 41.6473 83.0893 41.591 83.2205 41.5254L82.7733 40.631ZM82.3553 40.8527C82.374 40.834 82.3909 40.8218 82.4024 40.8144C82.4139 40.8071 82.4218 40.8036 82.4239 40.8027C82.427 40.8013 82.4168 40.8059 82.3868 40.8119L82.5829 41.7925C82.7189 41.7653 82.9135 41.7087 83.0624 41.5598L82.3553 40.8527ZM82.3868 40.8119C82.339 40.8215 82.3033 40.8277 82.2782 40.8313C82.2657 40.833 82.2578 40.8339 82.2536 40.8343C82.2488 40.8347 82.252 40.8342 82.2609 40.8342V41.8342C82.3591 41.8342 82.4785 41.8134 82.5829 41.7925L82.3868 40.8119ZM82.1028 40.8599C82.0372 40.8817 81.9434 40.8982 81.8129 40.8982V41.8982C82.0237 41.8982 82.2285 41.872 82.419 41.8086L82.1028 40.8599ZM81.8129 40.8982H81.2689V41.8982H81.8129V40.8982ZM81.7687 41.3849C81.7261 39.7883 81.7049 38.3529 81.7049 37.0782H80.7049C80.7049 38.3636 80.7263 39.8082 80.769 41.4116L81.7687 41.3849ZM81.7048 37.0856L81.8008 30.5896L80.8009 30.5748L80.7049 37.0708L81.7048 37.0856ZM83.1662 31.5414C84.8185 32.6505 86.7859 33.1942 89.0449 33.1942V32.1942C86.9518 32.1942 85.1859 31.6927 83.7235 30.7111L83.1662 31.5414ZM89.0498 33.1942C91.3344 33.1718 93.2884 32.4626 94.8804 31.0525L94.2173 30.3039C92.8226 31.5392 91.1073 32.174 89.04 32.1943L89.0498 33.1942ZM94.8833 31.0499C96.4779 29.6148 97.2889 27.8388 97.2889 25.7502H96.2889C96.2889 27.5443 95.6065 29.0536 94.2144 30.3066L94.8833 31.0499ZM97.2889 25.7502C97.2889 23.6514 96.4442 22.0332 94.7499 20.9742L94.2199 21.8222C95.5975 22.6832 96.2889 23.9664 96.2889 25.7502H97.2889ZM94.7499 20.9742C93.1204 19.9558 91.1793 19.4582 88.9489 19.4582V20.4582C91.0278 20.4582 92.7773 20.9206 94.2199 21.8222L94.7499 20.9742ZM88.9489 19.4582C86.7359 19.4582 84.7573 19.9682 83.0284 21.001L83.5413 21.8595C85.0978 20.9296 86.8952 20.4582 88.9489 20.4582V19.4582ZM82.7863 21.4686C82.8912 22.8321 82.9449 26.0429 82.9449 31.1262H83.9449C83.9449 26.0549 83.8918 22.8017 83.7834 21.3919L82.7863 21.4686ZM111.422 31.6702L111.922 31.6919L111.922 31.6811V31.6702H111.422ZM111.262 35.3502L110.763 35.3285L110.762 35.3394V35.3502H111.262ZM111.902 39.0942L112.331 38.837L112.325 38.8268L112.318 38.8169L111.902 39.0942ZM113.502 39.6382L113.634 40.1206L113.64 40.119L113.502 39.6382ZM114.622 39.8302L115.113 39.9283L115.17 39.6412L114.948 39.4506L114.622 39.8302ZM110.558 39.7982L111.024 39.617L111.021 39.6096L110.558 39.7982ZM110.046 37.6542L109.55 37.7148L109.55 37.7162L110.046 37.6542ZM109.79 35.8622L110.281 35.7642L110.004 34.3786L109.348 35.6301L109.79 35.8622ZM105.758 40.6942L105.556 40.237L105.553 40.2385L105.758 40.6942ZM101.406 39.8942L100.968 40.1352L100.972 40.1418L100.976 40.1482L101.406 39.8942ZM101.502 31.0942L101.981 31.2384L101.982 31.2369L101.502 31.0942ZM103.838 26.5822L104.221 26.9043L104.224 26.901L103.838 26.5822ZM110.686 26.9022L111.151 26.7179L111.151 26.7177L110.686 26.9022ZM103.582 30.6462L104.066 30.7717L104.067 30.7696L103.582 30.6462ZM102.91 33.9422L103.405 34.0144L103.405 34.0129L102.91 33.9422ZM103.166 38.7422L102.729 38.9851L102.736 38.9971L103.166 38.7422ZM107.806 36.3422L108.255 36.5623L107.806 36.3422ZM108.446 27.2542L108.835 26.9393L108.83 26.9341L108.446 27.2542ZM104.862 27.7022L104.455 27.4126L104.453 27.4148L104.862 27.7022ZM110.923 31.6485L110.763 35.3285L111.762 35.3719L111.922 31.6919L110.923 31.6485ZM110.762 35.3502C110.762 36.2947 110.816 37.1011 110.93 37.7625C111.041 38.4165 111.217 38.9675 111.486 39.3716L112.318 38.8169C112.161 38.5809 112.017 38.188 111.915 37.594C111.815 37.0074 111.762 36.2617 111.762 35.3502H110.762ZM111.474 39.3515C111.808 39.9087 112.313 40.2342 112.958 40.2342V39.2342C112.708 39.2342 112.509 39.133 112.331 38.837L111.474 39.3515ZM112.958 40.2342C113.154 40.2342 113.388 40.1878 113.634 40.1206L113.371 39.1558C113.148 39.2166 113.018 39.2342 112.958 39.2342V40.2342ZM113.64 40.119C113.961 40.0273 114.151 40.0845 114.297 40.2099L114.948 39.4506C114.497 39.0639 113.94 38.9932 113.365 39.1575L113.64 40.119ZM114.132 39.7322C114.091 39.9382 113.977 40.0977 113.727 40.223C113.453 40.3601 113.019 40.4502 112.382 40.4502V41.4502C113.09 41.4502 113.701 41.3537 114.174 41.1174C114.67 40.8694 115.005 40.4689 115.113 39.9283L114.132 39.7322ZM112.382 40.4502C111.992 40.4502 111.71 40.3688 111.505 40.2395C111.305 40.1127 111.141 39.9164 111.024 39.617L110.092 39.9795C110.275 40.448 110.564 40.8277 110.971 41.085C111.375 41.3396 111.855 41.4502 112.382 41.4502V40.4502ZM111.021 39.6096C110.808 39.0863 110.646 38.4173 110.543 37.5922L109.55 37.7162C109.66 38.5978 109.839 39.3582 110.095 39.9869L111.021 39.6096ZM110.543 37.5937C110.436 36.7207 110.349 36.1054 110.281 35.7642L109.3 35.9603C109.36 36.2591 109.443 36.8384 109.55 37.7148L110.543 37.5937ZM109.348 35.6301C107.966 38.2657 106.689 39.7356 105.556 40.237L105.961 41.1514C107.431 40.5008 108.841 38.7494 110.233 36.0944L109.348 35.6301ZM105.553 40.2385C104.968 40.5026 104.272 40.6422 103.454 40.6422V41.6422C104.386 41.6422 105.226 41.4832 105.964 41.1499L105.553 40.2385ZM103.454 40.6422C102.778 40.6422 102.249 40.339 101.837 39.6402L100.976 40.1482C101.545 41.1135 102.382 41.6422 103.454 41.6422V40.6422ZM101.844 39.6533C101.434 38.9075 101.202 37.7688 101.202 36.1822H100.202C100.202 37.8383 100.44 39.1743 100.968 40.1352L101.844 39.6533ZM101.202 36.1822C101.202 34.6161 101.46 32.9688 101.981 31.2384L101.024 30.95C100.478 32.761 100.202 34.5057 100.202 36.1822H101.202ZM101.982 31.2369C102.499 29.4992 103.248 28.0593 104.221 26.9043L103.456 26.2602C102.381 27.5371 101.573 29.1052 101.023 30.9516L101.982 31.2369ZM104.224 26.901C105.185 25.7391 106.176 25.2262 107.198 25.2262V24.2262C105.789 24.2262 104.54 24.9507 103.453 26.2634L104.224 26.901ZM107.198 25.2262C108.005 25.2262 108.635 25.3933 109.118 25.6944C109.596 25.9929 109.967 26.4462 110.222 27.0867L111.151 26.7177C110.829 25.9076 110.331 25.2729 109.647 24.846C108.967 24.4218 108.141 24.2262 107.198 24.2262V25.2262ZM110.222 27.0865C110.681 28.2448 110.922 29.7656 110.922 31.6702H111.922C111.922 29.6922 111.673 28.0343 111.151 26.7179L110.222 27.0865ZM103.098 30.5207C102.796 31.6886 102.568 32.8056 102.415 33.8715L103.405 34.0129C103.552 32.9882 103.772 31.9079 104.066 30.7717L103.098 30.5207ZM102.416 33.8701C102.264 34.9118 102.186 35.8539 102.186 36.6942H103.186C103.186 35.9132 103.258 35.0207 103.405 34.0144L102.416 33.8701ZM102.186 36.6942C102.186 37.5517 102.361 38.3214 102.729 38.9851L103.603 38.4994C103.332 38.0111 103.186 37.4154 103.186 36.6942H102.186ZM102.736 38.9971C103.141 39.6802 103.722 40.1062 104.478 40.1062V39.1062C104.168 39.1062 103.874 38.9563 103.597 38.4873L102.736 38.9971ZM104.478 40.1062C105.226 40.1062 105.91 39.7501 106.524 39.1472C107.136 38.5477 107.709 37.676 108.255 36.5623L107.357 36.1222C106.837 37.1845 106.322 37.9447 105.824 38.4333C105.33 38.9184 104.883 39.1062 104.478 39.1062V40.1062ZM108.255 36.5623C109.346 34.337 109.906 32.2347 109.906 30.2622H108.906C108.906 32.0444 108.4 33.9954 107.357 36.1222L108.255 36.5623ZM109.906 30.2622C109.906 28.955 109.56 27.8344 108.835 26.9393L108.058 27.5691C108.612 28.2528 108.906 29.1375 108.906 30.2622H109.906ZM108.83 26.9341C108.303 26.301 107.593 25.9862 106.75 25.9862V26.9862C107.316 26.9862 107.737 27.1835 108.062 27.5743L108.83 26.9341ZM106.75 25.9862C105.841 25.9862 105.079 26.5338 104.455 27.4126L105.27 27.9918C105.798 27.2493 106.295 26.9862 106.75 26.9862V25.9862ZM104.453 27.4148C103.856 28.2646 103.408 29.3051 103.098 30.5229L104.067 30.7696C104.354 29.6407 104.759 28.7185 105.271 27.9897L104.453 27.4148ZM117.541 39.8942L117.778 39.4536L117.009 39.0414L117.042 39.9127L117.541 39.8942ZM118.181 47.2222L118.535 47.5758L118.706 47.4051L118.678 47.1652L118.181 47.2222ZM116.389 47.7982L115.89 47.811L115.9 48.2236L116.307 48.2914L116.389 47.7982ZM115.909 42.1342L115.412 42.1811L115.412 42.1847L115.909 42.1342ZM115.781 31.2862L115.288 31.204L115.781 31.2862ZM116.773 28.0542L117.226 28.2662L117.227 28.2646L116.773 28.0542ZM126.021 27.5742L126.453 27.3216L126.021 27.5742ZM125.765 38.5182L126.144 38.8446L125.765 38.5182ZM118.213 29.4942L118.69 29.6466L118.69 29.6458L118.213 29.4942ZM117.477 38.3902L116.978 38.4119L116.995 38.7984L117.373 38.8792L117.477 38.3902ZM124.293 37.5262L124.695 37.8234L124.698 37.8193L124.293 37.5262ZM124.421 28.6942L123.967 28.9033L123.97 28.9092L124.421 28.6942ZM117.042 39.9127C117.106 41.6601 117.321 44.1178 117.685 47.2793L118.678 47.1652C118.316 44.012 118.104 41.5844 118.041 39.8757L117.042 39.9127ZM117.828 46.8687C117.513 47.1838 117.159 47.3302 116.741 47.3302V48.3302C117.434 48.3302 118.039 48.0714 118.535 47.5758L117.828 46.8687ZM116.741 47.3302C116.667 47.3302 116.578 47.3228 116.472 47.305L116.307 48.2914C116.457 48.3164 116.602 48.3302 116.741 48.3302V47.3302ZM116.889 47.7854C116.867 46.9307 116.705 45.0223 116.407 42.0838L115.412 42.1847C115.711 45.1342 115.869 47.0018 115.89 47.811L116.889 47.7854ZM116.407 42.0873C116.13 39.1477 115.993 36.9157 115.993 35.3822H114.993C114.993 36.9634 115.134 39.2327 115.412 42.1811L116.407 42.0873ZM115.993 35.3822C115.993 33.8222 116.088 32.4857 116.275 31.3684L115.288 31.204C115.09 32.3908 114.993 33.7849 114.993 35.3822H115.993ZM116.275 31.3684C116.459 30.2589 116.777 29.2254 117.226 28.2662L116.321 27.8423C115.831 28.8884 115.487 30.0096 115.288 31.204L116.275 31.3684ZM117.227 28.2646C117.669 27.3117 118.286 26.6181 119.074 26.1579C119.865 25.6955 120.861 25.4502 122.085 25.4502V24.4502C120.729 24.4502 119.548 24.7223 118.569 25.2945C117.586 25.8691 116.838 26.7274 116.32 27.8438L117.227 28.2646ZM122.085 25.4502C123.459 25.4502 124.628 26.1834 125.59 27.8268L126.453 27.3216C125.367 25.4664 123.912 24.4502 122.085 24.4502V25.4502ZM125.59 27.8268C126.563 29.4888 127.057 31.4364 127.057 33.6862H128.057C128.057 31.2854 127.528 29.1583 126.453 27.3216L125.59 27.8268ZM127.057 33.6862C127.057 35.4014 126.503 36.8962 125.387 38.1919L126.144 38.8446C127.417 37.3669 128.057 35.6404 128.057 33.6862H127.057ZM125.387 38.1919C124.302 39.4508 122.797 40.0982 120.805 40.0982V41.0982C123.038 41.0982 124.839 40.359 126.144 38.8446L125.387 38.1919ZM120.805 40.0982C119.562 40.0982 118.561 39.8737 117.778 39.4536L117.305 40.3348C118.271 40.8534 119.446 41.0982 120.805 41.0982V40.0982ZM121.829 26.1782C120.833 26.1782 119.964 26.4379 119.258 26.9877C118.556 27.5348 118.057 28.3355 117.737 29.3426L118.69 29.6458C118.967 28.7757 119.37 28.1683 119.873 27.7767C120.372 27.3879 121.012 27.1782 121.829 27.1782V26.1782ZM117.737 29.3418C117.202 31.0132 116.945 33.2805 116.945 36.1182H117.945C117.945 33.324 118.2 31.1752 118.69 29.6466L117.737 29.3418ZM116.945 36.1182C116.945 37.1435 116.956 37.9099 116.978 38.4119L117.977 38.3685C117.956 37.8893 117.945 37.141 117.945 36.1182H116.945ZM117.373 38.8792C119.265 39.2831 120.606 39.4982 121.349 39.4982V38.4982C120.728 38.4982 119.487 38.308 117.582 37.9012L117.373 38.8792ZM121.349 39.4982C122.743 39.4982 123.874 38.9344 124.695 37.8234L123.891 37.229C123.262 38.0807 122.431 38.4982 121.349 38.4982V39.4982ZM124.698 37.8193C125.495 36.7186 125.881 35.3959 125.881 33.8782H124.881C124.881 35.2192 124.543 36.3285 123.888 37.2332L124.698 37.8193ZM125.881 33.8782C125.881 31.7209 125.555 29.9124 124.873 28.4793L123.97 28.9092C124.567 30.164 124.881 31.8116 124.881 33.8782H125.881ZM124.876 28.4852C124.208 27.0341 123.201 26.1782 121.829 26.1782V27.1782C122.676 27.1782 123.398 27.6663 123.967 28.9033L124.876 28.4852ZM132.38 34.3902L132.457 33.8962L131.935 33.8146L131.882 34.3405L132.38 34.3902ZM133.468 38.2302L133.13 38.5988L133.135 38.6034L133.468 38.2302ZM138.844 38.8382L138.643 38.3801L138.638 38.3825L138.844 38.8382ZM140.316 37.8782L140.692 38.2075L140.699 38.1992L140.706 38.1906L140.316 37.8782ZM143.26 36.6302L143.75 36.7302L143.833 36.3211L143.446 36.166L143.26 36.6302ZM140.828 39.5102L141.09 39.9361L141.092 39.935L140.828 39.5102ZM131.708 39.3822L131.373 39.754L131.381 39.7608L131.708 39.3822ZM131.068 30.7102L130.608 30.5148L130.606 30.5179L131.068 30.7102ZM133.884 26.7422L134.217 27.1149L134.218 27.1145L133.884 26.7422ZM140.7 25.8782L140.415 26.2889L140.421 26.2934L140.428 26.2977L140.7 25.8782ZM139.388 32.7582L139.682 33.1626L139.683 33.1619L139.388 32.7582ZM137.5 32.3742L137.815 32.7626L137.5 32.3742ZM139.164 30.3582L138.714 30.14L138.709 30.1513L139.164 30.3582ZM139.004 26.9342L138.65 27.2879L138.659 27.2963L139.004 26.9342ZM134.46 28.4702L134.035 28.2058L134.033 28.2103L134.46 28.4702ZM132.54 33.0462L132.054 32.9281L131.931 33.4321L132.44 33.5361L132.54 33.0462ZM131.882 34.3405C131.84 34.7638 131.816 35.0761 131.816 35.2542H132.816C132.816 35.1337 132.834 34.87 132.877 34.44L131.882 34.3405ZM131.816 35.2542C131.816 36.6399 132.236 37.7791 133.13 38.5988L133.806 37.8617C133.164 37.2734 132.816 36.4286 132.816 35.2542H131.816ZM133.135 38.6034C134.017 39.3898 135.064 39.7862 136.252 39.7862V38.7862C135.307 38.7862 134.498 38.4786 133.801 37.8571L133.135 38.6034ZM136.252 39.7862C137.359 39.7862 138.301 39.6322 139.05 39.2939L138.638 38.3825C138.064 38.6416 137.278 38.7862 136.252 38.7862V39.7862ZM139.044 39.2963C139.756 38.9848 140.324 38.6287 140.692 38.2075L139.94 37.549C139.711 37.8105 139.297 38.0943 138.643 38.3802L139.044 39.2963ZM140.706 38.1906C141.459 37.2491 142.033 36.9382 142.428 36.9382V35.9382C141.543 35.9382 140.708 36.5874 139.925 37.5659L140.706 38.1906ZM142.428 36.9382C142.576 36.9382 142.788 36.98 143.074 37.0945L143.446 36.166C143.092 36.0245 142.749 35.9382 142.428 35.9382V36.9382ZM142.77 36.5303C142.596 37.3819 141.919 38.2439 140.564 39.0855L141.092 39.935C142.553 39.0272 143.497 37.9693 143.75 36.7302L142.77 36.5303ZM140.566 39.0844C139.278 39.8768 137.626 40.2902 135.58 40.2902V41.2902C137.757 41.2902 139.604 40.8503 141.09 39.9361L140.566 39.0844ZM135.58 40.2902C134.201 40.2902 133.028 39.8607 132.034 39.0037L131.381 39.7608C132.564 40.7811 133.972 41.2902 135.58 41.2902V40.2902ZM132.042 39.0106C131.097 38.1596 130.608 37.0018 130.608 35.4782H129.608C129.608 37.24 130.186 38.6849 131.373 39.7539L132.042 39.0106ZM130.608 35.4782C130.608 33.9025 130.914 32.3784 131.529 30.9025L130.606 30.5179C129.941 32.114 129.608 33.7687 129.608 35.4782H130.608ZM131.528 30.9057C132.162 29.4134 133.058 28.152 134.217 27.1149L133.55 26.3696C132.278 27.5085 131.297 28.8924 130.608 30.5148L131.528 30.9057ZM134.218 27.1145C135.393 26.0606 136.527 25.5782 137.628 25.5782V24.5782C136.211 24.5782 134.849 25.2052 133.55 26.3699L134.218 27.1145ZM137.628 25.5782C138.843 25.5782 139.756 25.8316 140.415 26.2889L140.985 25.4675C140.108 24.8582 138.973 24.5782 137.628 24.5782V25.5782ZM140.428 26.2977C141.064 26.7105 141.384 27.3037 141.384 28.1502H142.384C142.384 26.9915 141.914 26.07 140.972 25.4587L140.428 26.2977ZM141.384 28.1502C141.384 29.8273 140.644 31.2207 139.093 32.3545L139.683 33.1619C141.459 31.8638 142.384 30.1851 142.384 28.1502H141.384ZM139.094 32.3539C137.528 33.4926 135.88 34.0502 134.14 34.0502V35.0502C136.112 35.0502 137.962 34.4132 139.682 33.1626L139.094 32.3539ZM134.14 34.0502C133.683 34.0502 133.124 34.0004 132.457 33.8962L132.303 34.8842C133.001 34.9934 133.615 35.0502 134.14 35.0502V34.0502ZM134.812 33.8342C135.931 33.8342 136.938 33.4738 137.815 32.7626L137.185 31.9859C136.483 32.5547 135.698 32.8342 134.812 32.8342V33.8342ZM137.815 32.7626C138.646 32.0885 139.259 31.3583 139.619 30.5651L138.709 30.1513C138.429 30.7662 137.932 31.3799 137.185 31.9859L137.815 32.7626ZM139.614 30.5764C139.977 29.8275 140.176 29.1118 140.176 28.4382H139.176C139.176 28.9166 139.034 29.481 138.714 30.1401L139.614 30.5764ZM140.176 28.4382C140.176 27.7145 139.888 27.0854 139.349 26.5722L138.659 27.2963C139.016 27.6364 139.176 28.01 139.176 28.4382H140.176ZM139.357 26.5807C138.822 26.0452 138.174 25.7622 137.436 25.7622V26.7622C137.892 26.7622 138.29 26.9272 138.65 27.2878L139.357 26.5807ZM137.436 25.7622C136.108 25.7622 134.985 26.6822 134.036 28.2058L134.884 28.7347C135.769 27.3142 136.63 26.7622 137.436 26.7622V25.7622ZM134.033 28.2103C133.112 29.7235 132.451 31.2964 132.054 32.9281L133.026 33.1644C133.397 31.6387 134.016 30.1609 134.887 28.7302L134.033 28.2103ZM132.44 33.5361C133.393 33.731 134.187 33.8342 134.812 33.8342V32.8342C134.284 32.8342 133.564 32.7454 132.64 32.5564L132.44 33.5361ZM149.009 37.7502H148.509V37.7634L148.51 37.7765L149.009 37.7502ZM149.105 39.5742H149.605V39.5611L149.604 39.548L149.105 39.5742ZM148.689 40.5662L148.966 40.9823L148.973 40.9773L148.689 40.5662ZM147.089 40.6942L146.598 40.7874L146.654 41.0835L146.942 41.1721L147.089 40.6942ZM146.001 31.4462L145.502 31.478L145.502 31.4808L146.001 31.4462ZM145.585 25.1742L145.244 24.8087L145.066 24.9749L145.087 25.2175L145.585 25.1742ZM147.537 24.8542L148.032 24.7859L147.989 24.4701L147.684 24.3763L147.537 24.8542ZM147.729 28.9502L148.229 28.9401L147.729 28.9502ZM147.889 32.9182L147.392 32.9778L148.382 33.0004L147.889 32.9182ZM149.489 27.8942L149.937 28.1154L149.938 28.1134L149.489 27.8942ZM151.153 25.8142L151.453 26.2142L151.455 26.2128L151.153 25.8142ZM155.601 26.1022L155.231 26.4391L155.237 26.4448L155.242 26.4503L155.601 26.1022ZM156.241 28.5342L156.433 28.9958L156.449 28.9891L156.464 28.9814L156.241 28.5342ZM154.673 28.3422L155.077 28.0481V28.0481L154.673 28.3422ZM154.321 27.5742L153.832 27.679L153.834 27.6867L154.321 27.5742ZM153.905 26.7742L153.535 27.1106V27.1106L153.905 26.7742ZM150.577 29.0142L151.04 29.2019L151.042 29.1979L150.577 29.0142ZM148.51 37.7765L148.606 39.6005L149.604 39.548L149.508 37.724L148.51 37.7765ZM148.605 39.5742C148.605 39.9491 148.498 40.0901 148.404 40.1551L148.973 40.9773C149.434 40.6583 149.605 40.1381 149.605 39.5742H148.605ZM148.412 40.1502C148.228 40.2723 148.057 40.3222 147.889 40.3222V41.3222C148.276 41.3222 148.637 41.2015 148.966 40.9823L148.412 40.1502ZM147.889 40.3222C147.689 40.3222 147.472 40.2889 147.236 40.2163L146.942 41.1721C147.261 41.2702 147.577 41.3222 147.889 41.3222V40.3222ZM147.58 40.6011C147.116 38.1524 146.755 35.0908 146.5 31.4116L145.502 31.4808C145.759 35.183 146.123 38.2867 146.598 40.7874L147.58 40.6011ZM146.5 31.4145C146.265 27.7281 146.126 25.6291 146.083 25.1309L145.087 25.2175C145.129 25.7007 145.267 27.783 145.502 31.478L146.5 31.4145ZM145.926 25.5398C146.181 25.3022 146.395 25.2262 146.577 25.2262V24.2262C146.076 24.2262 145.629 24.4489 145.244 24.8087L145.926 25.5398ZM146.577 25.2262C146.902 25.2262 147.17 25.2646 147.39 25.3321L147.684 24.3763C147.349 24.2732 146.977 24.2262 146.577 24.2262V25.2262ZM147.042 24.9225C147.122 25.5066 147.186 26.8408 147.229 28.9603L148.229 28.9401C148.186 26.8356 148.122 25.4392 148.032 24.7859L147.042 24.9225ZM147.229 28.9603C147.271 31.0633 147.325 32.4143 147.392 32.9778L148.385 32.8587C148.325 32.3555 148.272 31.0611 148.229 28.9401L147.229 28.9603ZM148.382 33.0004C148.673 31.2544 149.192 29.6268 149.937 28.1154L149.04 27.6731C148.25 29.2763 147.702 30.998 147.396 32.836L148.382 33.0004ZM149.938 28.1134C150.335 27.3 150.842 26.6724 151.453 26.2142L150.853 25.4142C150.098 25.9801 149.496 26.7392 149.039 27.675L149.938 28.1134ZM151.455 26.2128C152.083 25.737 152.725 25.5142 153.393 25.5142V24.5142C152.482 24.5142 151.631 24.8248 150.851 25.4157L151.455 26.2128ZM153.393 25.5142C154.034 25.5142 154.643 25.794 155.231 26.4391L155.97 25.7654C155.236 24.9598 154.373 24.5142 153.393 24.5142V25.5142ZM155.242 26.4503C155.893 27.1221 156.125 27.6418 156.125 28.0222H157.125C157.125 27.2507 156.674 26.4903 155.96 25.7542L155.242 26.4503ZM156.125 28.0222C156.125 28.0247 156.125 28.0218 156.127 28.0161C156.128 28.0104 156.13 28.0082 156.129 28.0102C156.125 28.016 156.098 28.0464 156.017 28.087L156.464 28.9814C156.822 28.8025 157.125 28.4902 157.125 28.0222H156.125ZM156.049 28.0727C155.862 28.1504 155.641 28.1942 155.377 28.1942V29.1942C155.753 29.1942 156.108 29.1314 156.433 28.9958L156.049 28.0727ZM155.377 28.1942C155.233 28.1942 155.151 28.149 155.077 28.0481L154.268 28.6363C154.536 29.0048 154.924 29.1942 155.377 29.1942V28.1942ZM155.077 28.0481C154.945 27.8668 154.857 27.6723 154.808 27.4618L153.834 27.6867C153.913 28.0308 154.059 28.3484 154.268 28.6363L155.077 28.0481ZM154.81 27.4695C154.727 27.0811 154.545 26.7353 154.275 26.4379L153.535 27.1106C153.691 27.2825 153.787 27.4701 153.832 27.679L154.81 27.4695ZM154.275 26.4379C153.953 26.0836 153.522 25.9222 153.041 25.9222V26.9222C153.285 26.9222 153.43 26.9956 153.535 27.1106L154.275 26.4379ZM153.041 25.9222C152.392 25.9222 151.823 26.2201 151.342 26.7257C150.87 27.2228 150.465 27.9365 150.112 28.8305L151.042 29.1979C151.371 28.3639 151.718 27.7816 152.067 27.4147C152.408 27.0564 152.73 26.9222 153.041 26.9222V25.9222ZM150.113 28.8266C149.04 31.4765 148.509 34.4537 148.509 37.7502H149.509C149.509 34.5615 150.023 31.7147 151.04 29.2019L150.113 28.8266Z" fill="#0C0C0C" mask="url(#path-1-outside-1_1_94)"/>
</g>
<defs>
<filter id="filter0_d_1_94" x="0.909863" y="0.686231" width="168.4" height="65.4" filterUnits="userSpaceOnUse" color-interpolation-filters="sRGB">
<feFlood flood-opacity="0" result="BackgroundImageFix"/>
<feColorMatrix in="SourceAlpha" type="matrix" values="0 0 0 0 0 0 0 0 0 0 0 0 0 0 0 0 0 0 127 0" result="hardAlpha"/>
<feOffset dx="1" dy="1"/>
<feGaussianBlur stdDeviation="5.6"/>
<feComposite in2="hardAlpha" operator="out"/>
<feColorMatrix type="matrix" values="0 0 0 0 0 0 0 0 0 0 0 0 0 0 0 0 0 0 0.08 0"/>
<feBlend mode="normal" in2="BackgroundImageFix" result="effect1_dropShadow_1_94"/>
<feBlend mode="normal" in="SourceGraphic" in2="effect1_dropShadow_1_94" result="shape"/>
</filter>
<clipPath id="clip0_1_94">
<rect width="146" height="43" fill="white" transform="translate(11.1099 10.8862)"/>
</clipPath>
</defs>
</svg>
